<?xml version="1.0" encoding="UTF-8" standalone="no"?>
<!-- Created with Inkscape (http://www.inkscape.org/) -->

<svg
   width="297mm"
   height="210mm"
   viewBox="0 0 297 210"
   version="1.1"
   id="svg1"
   xml:space="preserve"
   inkscape:version="1.3 (0e150ed6c4, 2023-07-21)"
   sodipodi:docname="рисунок-45.svg"
   xmlns:inkscape="http://www.inkscape.org/namespaces/inkscape"
   xmlns:sodipodi="http://sodipodi.sourceforge.net/DTD/sodipodi-0.dtd"
   xmlns="http://www.w3.org/2000/svg"
   xmlns:svg="http://www.w3.org/2000/svg"><sodipodi:namedview
     id="namedview1"
     pagecolor="#ffffff"
     bordercolor="#000000"
     borderopacity="0.25"
     inkscape:showpageshadow="2"
     inkscape:pageopacity="0.0"
     inkscape:pagecheckerboard="0"
     inkscape:deskcolor="#d1d1d1"
     inkscape:document-units="mm"
     inkscape:zoom="0.51717104"
     inkscape:cx="404.12163"
     inkscape:cy="497.90105"
     inkscape:window-width="1920"
     inkscape:window-height="1017"
     inkscape:window-x="-8"
     inkscape:window-y="-8"
     inkscape:window-maximized="1"
     inkscape:current-layer="layer1" /><defs
     id="defs1"><inkscape:path-effect
       effect="fillet_chamfer"
       id="path-effect27"
       is_visible="true"
       lpeversion="1"
       nodesatellites_param="F,0,0,1,0,0,0,1 @ F,0,0,1,0,0,0,1 @ F,0,0,1,0,2.1615719,0,1 @ F,0,0,1,0,2.0669171,0,1 @ F,0,0,1,0,1.8301312,0,1 @ F,0,0,1,0,1.9747479,0,1 @ F,0,0,1,0,0,0,1 @ F,0,0,1,0,0,0,1 @ F,0,0,1,0,2.6334405,0,1 @ F,0,0,1,0,2.6334405,0,1 @ F,0,0,1,0,0,0,1 @ F,0,0,1,0,4.2423418,0,1"
       radius="0"
       unit="px"
       method="auto"
       mode="F"
       chamfer_steps="1"
       flexible="false"
       use_knot_distance="true"
       apply_no_radius="true"
       apply_with_radius="true"
       only_selected="false"
       hide_knots="false" /><inkscape:path-effect
       effect="fillet_chamfer"
       id="path-effect26"
       is_visible="true"
       lpeversion="1"
       nodesatellites_param="F,0,0,1,0,0,0,1 @ F,0,0,1,0,0,0,1 @ F,0,0,1,0,1.7766978,0,1 @ F,0,0,1,0,1.7072502,0,1 @ F,0,0,1,0,0,0,1 @ F,0,0,1,0,0,0,1 @ F,0,0,1,0,0,0,1 | F,0,0,1,0,0,0,1 @ F,0,0,1,0,0,0,1 @ F,0,0,1,0,0,0,1 @ F,0,0,1,0,0,0,1"
       radius="0"
       unit="px"
       method="auto"
       mode="F"
       chamfer_steps="1"
       flexible="false"
       use_knot_distance="true"
       apply_no_radius="true"
       apply_with_radius="true"
       only_selected="false"
       hide_knots="false" /><inkscape:path-effect
       effect="fillet_chamfer"
       id="path-effect25"
       is_visible="true"
       lpeversion="1"
       nodesatellites_param="F,0,0,1,0,3.9082992,0,1 @ F,0,0,1,0,3.1678825,0,1 @ F,0,0,1,0,0.86858407,0,1 @ F,0,0,1,0,1.3387594,0,1 @ F,0,0,1,0,5.2839052,0,1 @ F,0,0,1,0,2.3689773,0,1 @ F,0,0,1,0,0,0,1 @ F,0,0,1,0,1.9879684,0,1 @ F,0,0,1,0,0.97680285,0,1 @ F,0,0,1,0,1.6798984,0,1 @ F,0,0,1,0,1.2535806,0,1"
       radius="0"
       unit="px"
       method="auto"
       mode="F"
       chamfer_steps="1"
       flexible="false"
       use_knot_distance="true"
       apply_no_radius="true"
       apply_with_radius="true"
       only_selected="false"
       hide_knots="false" /><inkscape:path-effect
       effect="fillet_chamfer"
       id="path-effect18"
       is_visible="true"
       lpeversion="1"
       nodesatellites_param="F,0,0,1,0,0,0,1 @ F,0,0,1,0,0,0,1 @ F,0,0,1,0,0,0,1 @ F,0,0,1,0,0,0,1 @ F,0,0,1,0,0,0,1 @ F,0,0,1,0,0,0,1 @ F,0,0,1,0,0,0,1 @ F,0,0,1,0,0,0,1 @ F,0,0,1,0,0,0,1 @ F,0,0,1,0,0,0,1 @ F,0,0,1,0,0,0,1 @ F,0,0,1,0,0,0,1 @ F,0,0,1,0,0,0,1 @ F,0,0,1,0,0,0,1 @ F,0,0,1,0,4.5756391,0,1 @ F,0,0,1,0,0,0,1 @ F,0,0,1,0,0,0,1 @ F,0,0,1,0,0,0,1 @ F,0,0,1,0,0,0,1 @ F,0,0,1,0,0,0,1 @ F,0,0,1,0,0,0,1 @ F,0,0,1,0,0,0,1 @ F,0,0,1,0,0,0,1 @ F,0,0,1,0,0,0,1 @ F,0,0,1,0,0,0,1"
       radius="0"
       unit="px"
       method="auto"
       mode="F"
       chamfer_steps="1"
       flexible="false"
       use_knot_distance="true"
       apply_no_radius="true"
       apply_with_radius="true"
       only_selected="false"
       hide_knots="false" /><inkscape:path-effect
       effect="fillet_chamfer"
       id="path-effect17"
       is_visible="true"
       lpeversion="1"
       nodesatellites_param="F,0,0,1,0,7.6291551,0,1 @ F,0,0,1,0,0,0,1 @ F,0,0,1,0,0,0,1 @ F,0,0,1,0,0,0,1 @ F,0,0,1,0,0,0,1 @ F,0,0,1,0,0,0,1 @ F,0,0,1,0,0,0,1 @ F,0,0,1,0,0,0,1 @ F,0,0,1,0,0,0,1 @ F,0,0,1,0,0,0,1 | F,0,0,1,0,0,0,1 @ F,0,0,1,0,0,0,1 @ F,0,0,1,0,0,0,1 @ F,0,0,1,0,0,0,1 @ F,0,0,1,0,0,0,1 @ F,0,0,1,0,0,0,1 @ F,0,0,1,0,7.7646419,0,1 @ F,0,0,1,0,2.4592001,0,1 @ F,0,0,1,0,0,0,1 @ F,0,0,1,0,0,0,1 @ F,0,0,1,0,0,0,1 @ F,0,0,1,0,0,0,1"
       radius="0"
       unit="px"
       method="auto"
       mode="F"
       chamfer_steps="1"
       flexible="false"
       use_knot_distance="true"
       apply_no_radius="true"
       apply_with_radius="true"
       only_selected="false"
       hide_knots="false" /><inkscape:path-effect
       effect="fillet_chamfer"
       id="path-effect16"
       is_visible="true"
       lpeversion="1"
       nodesatellites_param="F,0,0,1,0,0,0,1 @ F,0,0,1,0,0,0,1 @ F,0,0,1,0,0,0,1 @ F,0,0,1,0,0.93991169,0,1 @ F,0,0,1,0,0,0,1 @ F,0,0,1,0,0,0,1 @ F,0,0,1,0,0,0,1 @ F,0,0,1,0,1.1403174,0,1 @ F,0,0,1,0,0,0,1"
       radius="0"
       unit="px"
       method="auto"
       mode="F"
       chamfer_steps="1"
       flexible="false"
       use_knot_distance="true"
       apply_no_radius="true"
       apply_with_radius="true"
       only_selected="false"
       hide_knots="false" /><inkscape:path-effect
       effect="fillet_chamfer"
       id="path-effect14"
       is_visible="true"
       lpeversion="1"
       nodesatellites_param="F,0,0,1,0,0,0,1 @ F,0,0,1,0,0,0,1 @ F,0,0,1,0,0,0,1 @ F,0,0,1,0,1.7588583,0,1 @ F,0,0,1,0,0,0,1 @ F,0,0,1,0,6.091568,0,1"
       radius="0"
       unit="px"
       method="auto"
       mode="F"
       chamfer_steps="1"
       flexible="false"
       use_knot_distance="true"
       apply_no_radius="true"
       apply_with_radius="true"
       only_selected="false"
       hide_knots="false" /><inkscape:path-effect
       effect="fillet_chamfer"
       id="path-effect13"
       is_visible="true"
       lpeversion="1"
       nodesatellites_param="F,0,0,1,0,0,0,1 @ F,0,0,1,0,0,0,1 @ F,0,0,1,0,0,0,1 @ F,0,0,1,0,0.89662608,0,1 @ F,0,0,1,0,0,0,1 @ F,0,0,1,0,6.392214,0,1"
       radius="0"
       unit="px"
       method="auto"
       mode="F"
       chamfer_steps="1"
       flexible="false"
       use_knot_distance="true"
       apply_no_radius="true"
       apply_with_radius="true"
       only_selected="false"
       hide_knots="false" /><inkscape:path-effect
       effect="fillet_chamfer"
       id="path-effect12"
       is_visible="true"
       lpeversion="1"
       nodesatellites_param="F,0,0,1,0,0,0,1 @ F,0,0,1,0,0,0,1 @ F,0,0,1,0,0,0,1 @ F,0,0,1,0,1.335453,0,1 @ F,0,0,1,0,0.33018383,0,1 @ F,0,0,1,0,4.1677606,0,1"
       radius="0"
       unit="px"
       method="auto"
       mode="F"
       chamfer_steps="1"
       flexible="false"
       use_knot_distance="true"
       apply_no_radius="true"
       apply_with_radius="true"
       only_selected="false"
       hide_knots="false" /><inkscape:path-effect
       effect="fillet_chamfer"
       id="path-effect8"
       is_visible="true"
       lpeversion="1"
       nodesatellites_param="F,0,0,1,0,0,0,1 @ F,0,0,1,0,0,0,1 @ F,0,0,1,0,0,0,1 @ F,0,0,1,0,1.6158826,0,1 @ F,0,0,1,0,1.5900478,0,1 @ F,0,0,1,0,0.44089959,0,1 @ F,0,0,1,0,0,0,1 @ F,0,0,1,0,0,0,1 @ F,0,0,1,0,0,0,1 @ F,0,0,1,0,0,0,1 @ F,0,0,1,0,0.78148094,0,1 @ F,0,0,1,0,0,0,1 @ F,0,0,1,0,2.3823151,0,1 @ F,0,0,1,0,0,0,1 @ F,0,0,1,0,0,0,1"
       radius="0"
       unit="px"
       method="auto"
       mode="F"
       chamfer_steps="1"
       flexible="false"
       use_knot_distance="true"
       apply_no_radius="true"
       apply_with_radius="true"
       only_selected="false"
       hide_knots="false" /><inkscape:path-effect
       effect="fillet_chamfer"
       id="path-effect7"
       is_visible="true"
       lpeversion="1"
       nodesatellites_param="F,0,0,1,0,0,0,1 @ F,0,0,1,0,0,0,1 @ F,0,0,1,0,0,0,1 @ F,0,0,1,0,0,0,1 @ F,0,0,1,0,0,0,1 @ F,0,0,1,0,0,0,1 @ F,0,0,1,0,1.747949,0,1 @ F,0,0,1,0,0,0,1 @ F,0,0,1,0,0,0,1 @ F,0,0,1,0,0,0,1 @ F,0,0,1,0,0,0,1 | F,0,0,1,0,1.0128053,0,1 @ F,0,0,1,0,1.0087055,0,1 @ F,0,0,1,0,0.6154189,0,1"
       radius="0"
       unit="px"
       method="auto"
       mode="F"
       chamfer_steps="1"
       flexible="false"
       use_knot_distance="true"
       apply_no_radius="true"
       apply_with_radius="true"
       only_selected="false"
       hide_knots="false" /><inkscape:path-effect
       effect="fillet_chamfer"
       id="path-effect5"
       is_visible="true"
       lpeversion="1"
       nodesatellites_param="F,0,0,1,0,0,0,1 @ F,0,0,1,0,1.917791,0,1 @ F,0,0,1,0,6.7705738,0,1 @ F,0,0,1,0,0,0,1"
       radius="0"
       unit="px"
       method="auto"
       mode="F"
       chamfer_steps="1"
       flexible="false"
       use_knot_distance="true"
       apply_no_radius="true"
       apply_with_radius="true"
       only_selected="false"
       hide_knots="false" /><inkscape:path-effect
       effect="fillet_chamfer"
       id="path-effect16-7"
       is_visible="true"
       lpeversion="1"
       nodesatellites_param="F,0,0,1,0,0,0,1 @ F,0,0,1,0,0,0,1 @ F,0,0,1,0,0,0,1 @ F,0,0,1,0,0.93991169,0,1 @ F,0,0,1,0,0,0,1 @ F,0,0,1,0,0,0,1 @ F,0,0,1,0,0,0,1 @ F,0,0,1,0,1.1403174,0,1 @ F,0,0,1,0,0,0,1"
       radius="0"
       unit="px"
       method="auto"
       mode="F"
       chamfer_steps="1"
       flexible="false"
       use_knot_distance="true"
       apply_no_radius="true"
       apply_with_radius="true"
       only_selected="false"
       hide_knots="false" /><inkscape:path-effect
       effect="fillet_chamfer"
       id="path-effect26-0"
       is_visible="true"
       lpeversion="1"
       nodesatellites_param="F,0,0,1,0,0,0,1 @ F,0,0,1,0,0,0,1 @ F,0,0,1,0,1.7766978,0,1 @ F,0,0,1,0,1.7072502,0,1 @ F,0,0,1,0,0,0,1 @ F,0,0,1,0,0,0,1 @ F,0,0,1,0,0,0,1 | F,0,0,1,0,0,0,1 @ F,0,0,1,0,0,0,1 @ F,0,0,1,0,0,0,1 @ F,0,0,1,0,0,0,1"
       radius="0"
       unit="px"
       method="auto"
       mode="F"
       chamfer_steps="1"
       flexible="false"
       use_knot_distance="true"
       apply_no_radius="true"
       apply_with_radius="true"
       only_selected="false"
       hide_knots="false" /><inkscape:path-effect
       effect="fillet_chamfer"
       id="path-effect26-0-5"
       is_visible="true"
       lpeversion="1"
       nodesatellites_param="F,0,0,1,0,0,0,1 @ F,0,0,1,0,0,0,1 @ F,0,0,1,0,1.7766978,0,1 @ F,0,0,1,0,1.7072502,0,1 @ F,0,0,1,0,0,0,1 @ F,0,0,1,0,0,0,1 @ F,0,0,1,0,0,0,1 | F,0,0,1,0,0,0,1 @ F,0,0,1,0,0,0,1 @ F,0,0,1,0,0,0,1 @ F,0,0,1,0,0,0,1"
       radius="0"
       unit="px"
       method="auto"
       mode="F"
       chamfer_steps="1"
       flexible="false"
       use_knot_distance="true"
       apply_no_radius="true"
       apply_with_radius="true"
       only_selected="false"
       hide_knots="false" /></defs><g
     inkscape:label="Слой 1"
     inkscape:groupmode="layer"
     id="layer1"><path
       style="opacity:1;fill:#aa8744;fill-opacity:1;stroke:none;stroke-width:0.560684;stroke-linecap:round;stroke-linejoin:round;stroke-miterlimit:3.8;stroke-dasharray:none;stroke-opacity:1"
       d="m 480.05614,751.57055 c -4.28563,0.0111 -8.61255,1.94471 -11.5683,4.79275 -0.68073,-0.97292 -0.95062,-2.65925 -1.71471,-3.58346 -0.71393,-0.86353 -2.94289,-0.72734 -4.09803,-0.44438 -0.39518,0.0968 -0.74902,0.24917 -1.01364,0.47968 -0.80993,0.70552 -0.34768,2.83721 -0.34267,3.97873 0.0371,8.44358 -0.16187,16.90069 0.18488,25.33369 0.0414,1.00717 0.46402,2.71735 1.39653,3.01008 0.73477,0.23067 1.63299,0.1584 2.50587,0.0745 1.08329,-0.10413 2.99343,-0.34258 3.36324,-1.29931 1.37345,-3.55318 -0.71551,-14.04042 1.61521,-21.32675 1.24847,-3.75619 4.70972,-7.08913 8.9259,-6.48914 2.42695,0.0243 4.60655,2.14751 5.55756,4.44285 0.55222,1.33282 0.59062,3.74052 0.61848,5.19448 0.10197,5.32056 -0.54998,10.65831 -0.33171,15.98418 0.0596,1.45285 1.36233,2.70128 2.81563,2.75785 4.80411,0.187 4.66922,-0.37225 4.76258,-4.44686 -0.10717,-5.2443 0.2801,-10.52528 0.0385,-15.76803 -0.10781,-2.33942 -0.78062,-6.17257 -2.21624,-8.00202 -2.43178,-3.0989 -6.56639,-4.87773 -10.49909,-4.68883 z"
       id="path24"
       transform="matrix(0.26458333,0,0,0.26458333,46.555359,-48.601749)"
       sodipodi:nodetypes="ccccccccccccc"
       inkscape:path-effect="#path-effect27"
       inkscape:original-d="m 480.05614,751.57055 c -4.28563,0.0111 -8.61255,1.94471 -11.5683,4.79275 -1.06765,-1.52592 -1.1247,-4.80672 -3.6628,-4.14978 -1.73659,-0.1194 -4.2495,0.0872 -3.52046,2.51348 0.0932,9.73845 -0.21261,19.49899 0.28288,29.22383 0.96558,2.21908 3.96595,0.96271 5.78779,1.18912 3.83833,-0.23985 0.18966,-13.73916 3.00927,-22.55388 1.24847,-3.75619 4.70972,-7.08913 8.9259,-6.48914 3.34112,0.0334 6.21346,4.04488 6.05683,7.00692 0.52475,7.0642 -0.756,14.16726 -0.027,21.24087 7.48191,0.40751 7.28478,0.39529 7.39271,-4.31529 -0.13603,-6.6565 0.52453,-13.3721 -0.31541,-19.99362 -1.32882,-5.36187 -7.03062,-8.72132 -12.36141,-8.46526 z" /><g
       id="g15"
       style="fill:#aa8744;fill-opacity:1"
       transform="translate(46.555359,-48.601749)"><path
         style="color:#000000;opacity:1;fill:#aa8744;fill-opacity:1;stroke-linecap:round;stroke-linejoin:round;stroke-miterlimit:3.8;-inkscape-stroke:none"
         d="m 73.705078,110.4375 c -0.342976,-0.19882 -0.7822,-0.0816 -0.980469,0.26172 l -1.027343,1.77734 c -0.414802,0.71648 -1.62583,1.79161 -2.388672,2.12696 -4.901238,2.15461 -9.630567,4.4172 -13.84375,6.99218 -3.240546,1.98054 -8.162823,5.54391 -11.376953,7.21875 -11.44278,5.96268 -21.54248,7.6869 -25.447266,8.1211 -0.392974,0.044 -0.676092,0.39795 -0.632813,0.79101 0.04403,0.39383 -0.23388,1.10683 0.1599,1.06239 4.048174,-0.45014 15.137207,-2.49744 26.785775,-8.56735 3.41604,-1.78006 8.326845,-5.23591 11.462891,-7.15258 4.124367,-2.5207 8.70968,-5.00854 13.583389,-7.15105 1.176376,-0.51714 2.562491,-1.65109 3.209048,-2.76788 l 0.757982,-1.73212 c 0.198817,-0.34298 0.08157,-0.7822 -0.261719,-0.98047 z"
         id="path1"
         sodipodi:nodetypes="cccssscccsssccc" /><path
         style="opacity:1;fill:#aa8744;fill-opacity:1;stroke:none;stroke-width:0.702098;stroke-linecap:round;stroke-linejoin:round;stroke-miterlimit:3.8;stroke-dasharray:none"
         id="path2"
         sodipodi:type="arc"
         sodipodi:cx="64.914398"
         sodipodi:cy="106.77494"
         sodipodi:rx="2.7973275"
         sodipodi:ry="2.7973275"
         sodipodi:start="4.0663863"
         sodipodi:end="4.0005034"
         sodipodi:arc-type="arc"
         d="m 63.230409,104.54128 a 2.7973275,2.7973275 0 0 1 3.889607,0.51311 2.7973275,2.7973275 0 0 1 -0.448975,3.89753 2.7973275,2.7973275 0 0 1 -3.904397,-0.38472 2.7973275,2.7973275 0 0 1 0.320365,-3.9102"
         sodipodi:open="true" /><path
         style="color:#000000;opacity:1;fill:#aa8744;fill-opacity:1;stroke-linecap:round;stroke-linejoin:round;stroke-miterlimit:3.8;-inkscape-stroke:none"
         d="m 26.675781,115.54688 c -0.189178,-0.019 -0.378163,0.0379 -0.52539,0.1582 -10.956606,8.94517 -22.5375179,18.45518 -25.51953163,45.24023 -0.0528083,0.47579 0.36652754,0.86874 0.83789063,0.78516 7.6208116,-1.36096 10.51175,-3.62134 12.157841,-4.72875 0.14258,-0.0961 0.291081,-0.48903 0.336236,-0.65496 2.347723,-6.9654 1.730682,-12.86866 6.543591,-19.87825 0.54621,-0.79551 1.601062,-2.05837 1.681391,-3.00725 0.01699,-0.20065 0.0045,-0.34946 -0.01143,-0.42035 -0.279112,-1.24533 -11.711815,8.40347 -18.2584901,21.13685 5.1095834,-23.00598 14.9319661,-29.93136 23.9526991,-37.18047 0.307212,-0.25062 -0.461235,-0.88387 -0.712384,-1.19065 -0.120078,-0.14704 -0.293568,-0.24045 -0.482422,-0.25976 z m -11.100844,26.41884 c -1.607254,4.49303 -2.185928,8.72689 -3.24941,12.90007 -0.137426,0.53927 -0.651365,1.19594 -1.134637,1.47307 -1.6804953,0.96364 -3.614059,2.05235 -7.140451,3.03528 -0.3268794,0.0911 -0.4760471,-0.0891 -0.3299847,-0.39601 3.8605288,-8.11161 6.8753757,-12.25411 11.5140387,-17.22394 0.381665,-0.40891 0.528841,-0.31513 0.340444,0.21153 z"
         id="path3"
         sodipodi:nodetypes="ccccccsscccccccc"
         inkscape:path-effect="#path-effect7"
         inkscape:original-d="m 26.675781,115.54688 c -0.189178,-0.019 -0.378163,0.0379 -0.52539,0.1582 -10.956606,8.94517 -22.5375179,18.45518 -25.51953163,45.24023 -0.0528083,0.47579 0.36652754,0.86874 0.83789063,0.78516 7.6208116,-1.36096 10.51175,-3.62134 12.157841,-4.72875 0.14258,-0.0961 0.291081,-0.48903 0.336236,-0.65496 2.503444,-7.4274 1.635784,-13.6471 7.575407,-21.28829 0.702981,-0.90436 0.685457,-1.80647 0.638144,-2.01756 -0.279112,-1.24533 -11.711815,8.40347 -18.2584901,21.13685 5.1095834,-23.00598 14.9319661,-29.93136 23.9526991,-37.18047 0.307212,-0.25062 -0.461235,-0.88387 -0.712384,-1.19065 -0.120078,-0.14704 -0.293568,-0.24045 -0.482422,-0.25976 z m -10.747074,25.46986 c -2.019251,5.20084 -2.543092,10.04176 -3.861199,14.8231 -2.01142,1.12355 -4.0467512,2.49891 -8.6102198,3.6946 4.1793979,-8.88761 7.3235018,-13.09259 12.4714188,-18.5177 z" /><path
         style="color:#000000;opacity:1;fill:#aa8744;fill-opacity:1;stroke-linecap:round;stroke-linejoin:round;stroke-miterlimit:3.8;-inkscape-stroke:none"
         d="m 75.234375,105.29688 c -0.384546,-0.0944 -0.772782,0.14086 -0.867188,0.52539 -0.09435,0.38454 0.140861,0.77277 0.525391,0.86718 9.433735,2.31989 12.077544,3.19999 15.993708,4.77732 -9.136614,-1.66421 -14.324177,-1.14433 -17.952692,-1.34958 -0.394606,-0.0221 -0.732682,0.27929 -0.75586,0.67383 -0.0232,0.39607 0.279654,0.73568 0.675782,0.75781 4.333072,0.2713 11.215028,0.30101 24.743288,2.44588 0.382958,0.0927 1.388775,0.3637 1.520132,0.0796 0.135036,-0.29206 -0.840341,-0.53331 -1.175915,-0.76015 -2.278734,-1.5493 -5.04557,-2.76707 -9.297615,-4.13133 -4.252046,-1.36425 -9.025496,-2.80798 -13.409031,-3.88595 z"
         id="path7"
         sodipodi:nodetypes="ccccccccscsc" /><path
         style="color:#000000;opacity:1;fill:#aa8744;fill-opacity:1;stroke-linecap:round;stroke-linejoin:round;stroke-miterlimit:3.8;-inkscape-stroke:none"
         d="m 62.984375,95.392578 c -1.648455,-0.07469 -3.633438,0.07073 -5.201332,0.482925 -6.271579,1.648798 -10.9001,5.893587 -12.976967,9.148557 -0.213085,0.33384 -0.434888,1.35277 -0.100998,1.56578 0.333843,0.21309 1.064997,2.38535 1.278008,2.05146 -0.749029,-2.4901 6.476457,-9.75631 12.516914,-11.315128 2.899766,-0.748322 5.922907,-0.763345 8.84375,0.537109 2.606232,1.160379 5.082088,3.909819 7.350354,7.714999 0.273813,0.45934 -0.179236,0.48682 0.08765,0.98707 0.186471,0.34966 1.435179,0.34609 1.784649,0.15926 0.348516,-0.18643 1.430035,0.0359 1.244526,-0.31307 -0.420303,-0.78781 -1.151893,-0.96672 -1.546854,-1.73745 -3.25451,-6.350927 -9.00311,-9.344696 -13.2797,-9.281512 z"
         id="path5"
         sodipodi:nodetypes="cscccssscccsc" /><path
         style="color:#000000;opacity:1;fill:#aa8744;fill-opacity:1;stroke-linecap:round;stroke-linejoin:round;stroke-miterlimit:3.8;-inkscape-stroke:none"
         d="m -3.0253906,63.380859 c -0.4936014,-0.122623 -0.9544186,0.293336 -0.8828125,0.796875 1.6517115,11.745449 6.5088742,24.642607 13.1113281,35.115235 6.20891,9.848401 13.147501,17.283221 21.296039,19.726851 0.854591,0.25628 2.318733,0.60719 3.169357,0.35607 0.207459,-0.0612 0.240532,-1.06698 -0.423152,-1.21068 C 24.774727,116.12446 16.79037,108.64011 10.416016,98.529297 4.1350196,88.566557 -0.17896353,76.76 -1.9400173,65.54921 13.871994,69.758028 24.711199,78.500364 32.51033,87.963836 c 1.958056,2.375906 6.598114,8.258263 9.73385,14.971894 2.673098,5.72312 4.592943,11.75157 2.407269,16.66238 -0.175443,0.39419 -0.560933,0.97626 -0.857825,1.28829 -0.30035,0.31566 -0.575627,0.63516 -0.371371,0.74535 0.09069,0.0488 0.291345,-5.3e-4 0.541899,-0.10632 1.203571,-0.50818 2.609718,-2.19342 3.04763,-3.42998 1.401307,-3.95698 0.107325,-8.85283 -1.999202,-13.64753 C 41.386915,96.19548 35.09773,88.348301 33.935547,86.923828 25.821208,76.978186 13.994609,66.843129 -3.0253906,63.380859 Z"
         id="path6"
         sodipodi:nodetypes="ccscccscsscccssc"
         inkscape:path-effect="#path-effect8"
         inkscape:original-d="m -3.0253906,63.380859 c -0.4936014,-0.122623 -0.9544186,0.293336 -0.8828125,0.796875 1.6517115,11.745449 6.5088742,24.642607 13.1113281,35.115235 6.602454,10.472631 14.030022,18.216021 22.860201,20.130701 0.386641,0.0832 1.838814,0.10944 1.92272,-0.27705 0.08445,-0.3873 -0.353252,-0.89753 -0.740677,-0.98141 C 25.059691,116.39027 16.903917,108.82022 10.416016,98.529297 4.1350196,88.566557 -0.17896353,76.76 -1.9400173,65.54921 13.871994,69.758028 24.711199,78.500364 32.51033,87.963836 c 1.958056,2.375906 6.598114,8.258263 9.73385,14.971894 2.80176,5.99859 4.77601,12.3326 2.062758,17.36356 -0.187435,0.34844 -1.2329,1.14461 -0.884685,1.33246 0.348438,0.18744 2.320304,-1.07328 2.508157,-1.42149 2.938268,-4.23697 1.582666,-10.07092 -0.91783,-15.76234 C 41.386915,96.19548 35.09773,88.348301 33.935547,86.923828 25.821208,76.978186 13.994609,66.843129 -3.0253906,63.380859 Z" /><path
         style="color:#000000;opacity:1;fill:#aa8744;fill-opacity:1;stroke-linecap:round;stroke-linejoin:round;stroke-miterlimit:3.8;-inkscape-stroke:none"
         d="m -1.2871094,71.740234 c -0.4298338,-0.136212 -0.8887522,0.101552 -1.0253906,0.53125 -0.136212,0.429834 0.1015515,0.888753 0.53125,1.025391 22.593526,7.179099 34.240371,22.561008 38.610283,29.162135 0.407104,0.61496 1.124823,1.53936 1.648152,2.02179 0.209052,0.19271 0.420781,0.36751 0.596454,0.46732 0.153889,0.0874 0.440187,-0.008 0.53469,-0.16237 0.335737,-0.54768 -0.925695,-2.7413 -2.267696,-4.61106 C 31.798375,92.452896 19.529739,78.354794 -1.2871094,71.740234 Z"
         id="path8"
         sodipodi:nodetypes="ccccccc"
         inkscape:path-effect="#path-effect12"
         inkscape:original-d="m -1.2871094,71.740234 c -0.4298338,-0.136212 -0.8887522,0.101552 -1.0253906,0.53125 -0.136212,0.429834 0.1015515,0.888753 0.53125,1.025391 23.990261,7.622912 35.638555,24.494181 39.338164,30.281695 -0.140456,-0.24403 1.4001,1.61053 1.827852,1.44636 0.380384,-0.24314 0.536687,-1.02002 0.293267,-1.40023 C 35.910641,97.731156 23.250129,79.536949 -1.2871094,71.740234 Z" /><path
         style="color:#000000;opacity:1;fill:#aa8744;fill-opacity:1;stroke-linecap:round;stroke-linejoin:round;stroke-miterlimit:3.8;-inkscape-stroke:none"
         d="M 2.0019531,81.021484 C 1.5763858,80.869382 1.108179,81.091674 0.95703125,81.517578 0.80621384,81.942568 1.0602322,82.665183 1.4850998,82.816346 15.841143,87.588008 24.784002,94.99662 36.300757,106.31447 c 0.294466,0.34198 1.556547,1.71441 1.898462,1.41987 0.340726,-0.29429 -0.751322,-1.66792 -1.044541,-2.00957 C 28.354618,95.488654 18.020593,86.735252 2.0019531,81.021484 Z"
         id="path9"
         sodipodi:nodetypes="csccccc" /><path
         style="color:#000000;opacity:1;fill:#aa8744;fill-opacity:1;stroke-linecap:round;stroke-linejoin:round;stroke-miterlimit:3.8;-inkscape-stroke:none"
         d="M 5.2480469,89.841797 C 4.8197796,89.697887 4.8082104,89.72541 4.665083,90.153935 4.5224496,90.581611 4.8210319,91.518794 5.2485369,91.66194 17.4652,95.90475 26.281787,101.98832 33.951023,109.34531 c 0.357352,0.3428 0.927805,0.91733 1.35124,1.17222 0.312845,0.18831 0.634818,0.30039 0.809065,0.13875 0.699496,-0.64967 -2.472009,-3.76572 -5.092759,-6.12934 C 23.980513,98.179416 15.711428,93.352346 5.2480469,89.841797 Z"
         id="path10"
         sodipodi:nodetypes="cccsccc"
         inkscape:path-effect="#path-effect13"
         inkscape:original-d="M 5.2480469,89.841797 C 4.8197796,89.697887 4.8082104,89.72541 4.665083,90.153935 c -0.1426334,0.427676 0.1559489,1.364859 0.5834539,1.508005 12.5601681,4.362108 21.5263671,10.66995 29.3467401,18.30696 0.322696,0.31513 1.18538,0.99413 1.516051,0.68738 0.330497,-0.30694 -0.238119,-1.30974 -0.54488,-1.64041 C 27.569236,100.40423 18.051373,94.137417 5.2480469,89.841797 Z" /><path
         style="color:#000000;opacity:1;fill:#aa8744;fill-opacity:1;stroke-linecap:round;stroke-linejoin:round;stroke-miterlimit:3.8;-inkscape-stroke:none"
         d="m 10.603813,99.30853 c -0.445605,-0.07491 -0.6865164,0.11307 -0.7605293,0.558825 -0.073718,0.444915 1.1992253,1.701975 1.6440893,1.776015 5.64057,1.1293 10.652978,3.44177 19.499894,10.01563 0.779698,0.57937 2.025591,1.55634 2.889395,1.99845 0.440423,0.22542 0.834163,0.35952 0.954116,0.21032 0.589676,-0.73399 -2.756618,-3.30707 -5.468763,-5.29724 -7.707158,-5.65552 -13.486078,-8.37759 -18.758202,-9.262 z"
         id="path11"
         sodipodi:nodetypes="ccccccc"
         inkscape:path-effect="#path-effect14"
         inkscape:original-d="m 10.603813,99.30853 c -0.445605,-0.07491 -0.6865164,0.11307 -0.7605293,0.558825 -0.073718,0.444915 1.1992253,1.701975 1.6440893,1.776015 5.932757,1.1878 11.170588,3.68452 20.906218,11.07196 0.351673,0.28253 2.154533,1.50402 2.437187,1.15244 0.282538,-0.35167 -0.293441,-1.29537 -0.645022,-1.57802 C 23.966796,104.0669 16.92144,100.36832 10.603813,99.30853 Z" /></g><path
       style="opacity:1;fill:none;stroke:#aa8744;stroke-width:1.634;stroke-linecap:round;stroke-linejoin:round;stroke-miterlimit:3.8;stroke-dasharray:none;stroke-opacity:1"
       d="M 105.88301,93.793651 H 84.901278"
       id="path14" /><path
       style="fill:none;stroke:#aa8744;stroke-width:1.634;stroke-linecap:round;stroke-linejoin:round;stroke-miterlimit:3.8;stroke-dasharray:none;stroke-opacity:1"
       d="M 105.56758,132.46678 H 84.585846"
       id="path14-3" /><path
       style="color:#000000;fill:#aa8744;fill-opacity:1;stroke-linecap:round;stroke-linejoin:round;stroke-miterlimit:3.8;-inkscape-stroke:none"
       d="m 41.486246,158.7762 c -0.450753,-7.5e-4 -2.191871,1.70664 -2.193277,2.15739 -7.53e-4,0.45075 1.41887,2.99125 1.869623,2.99265 0.153278,-0.45715 0.445577,-0.8251 0.638175,-1.2795 0.200703,-0.47353 0.608732,-0.91009 1.127825,-0.90763 l 12.190549,0.0577 c 0.451515,0.002 0.818906,-0.36293 0.820312,-0.81445 7.53e-4,-0.45075 -0.3637,-0.81696 -0.814453,-0.81836 l -11.937765,-0.0357 c -0.629777,-0.002 -1.225914,-0.51006 -1.525187,-1.04587 -0.05301,-0.0949 -0.111536,-0.1969 -0.175802,-0.30628 z"
       id="path15"
       sodipodi:nodetypes="cccccccccc"
       inkscape:path-effect="#path-effect16"
       inkscape:original-d="m 41.486246,158.7762 c -0.450753,-7.5e-4 -2.191871,1.70664 -2.193277,2.15739 -7.53e-4,0.45075 1.41887,2.99125 1.869623,2.99265 0.242169,-0.72227 0.831364,-1.22187 0.826099,-2.19158 l 13.13045,0.0622 c 0.451515,0.002 0.818906,-0.36293 0.820312,-0.81445 7.53e-4,-0.45075 -0.3637,-0.81696 -0.814453,-0.81836 l -13.078077,-0.0391 c 0.09363,-0.0889 -0.05788,-0.493 -0.560677,-1.34874 z"
       transform="translate(46.555359,-48.601749)" /><rect
       style="opacity:1;fill:#aa8744;fill-opacity:1;stroke:#aa8744;stroke-width:1.60646;stroke-linecap:round;stroke-linejoin:round;stroke-miterlimit:3.8;stroke-dasharray:none;stroke-opacity:1"
       id="rect15"
       width="2.8413243"
       height="38.397343"
       x="84.527695"
       y="94.120163" /><path
       style="fill:none;stroke:#aa8744;stroke-width:1.634;stroke-linecap:round;stroke-linejoin:round;stroke-miterlimit:3.8;stroke-dasharray:none;stroke-opacity:1"
       d="M 182.4359,93.704801 H 161.45417"
       id="path14-4" /><path
       style="fill:none;stroke:#aa8744;stroke-width:1.634;stroke-linecap:round;stroke-linejoin:round;stroke-miterlimit:3.8;stroke-dasharray:none;stroke-opacity:1"
       d="M 182.12047,132.37793 H 161.13874"
       id="path14-3-7" /><path
       style="color:#000000;fill:#aa8744;fill-opacity:1;stroke-linecap:round;stroke-linejoin:round;stroke-miterlimit:3.8;-inkscape-stroke:none"
       d="m 41.486246,158.7762 c -0.450753,-7.5e-4 -2.191871,1.70664 -2.193277,2.15739 -7.53e-4,0.45075 1.41887,2.99125 1.869623,2.99265 0.153278,-0.45715 0.445577,-0.8251 0.638175,-1.2795 0.200703,-0.47353 0.608732,-0.91009 1.127825,-0.90763 l 12.190549,0.0577 c 0.451515,0.002 0.818906,-0.36293 0.820312,-0.81445 7.53e-4,-0.45075 -0.3637,-0.81696 -0.814453,-0.81836 l -11.937765,-0.0357 c -0.629777,-0.002 -1.225914,-0.51006 -1.525187,-1.04587 -0.05301,-0.0949 -0.111536,-0.1969 -0.175802,-0.30628 z"
       id="path15-3"
       sodipodi:nodetypes="cccccccccc"
       inkscape:path-effect="#path-effect16-7"
       inkscape:original-d="m 41.486246,158.7762 c -0.450753,-7.5e-4 -2.191871,1.70664 -2.193277,2.15739 -7.53e-4,0.45075 1.41887,2.99125 1.869623,2.99265 0.242169,-0.72227 0.831364,-1.22187 0.826099,-2.19158 l 13.13045,0.0622 c 0.451515,0.002 0.818906,-0.36293 0.820312,-0.81445 7.53e-4,-0.45075 -0.3637,-0.81696 -0.814453,-0.81836 l -13.078077,-0.0391 c 0.09363,-0.0889 -0.05788,-0.493 -0.560677,-1.34874 z"
       transform="translate(123.10825,-48.690602)" /><rect
       style="fill:#aa8744;fill-opacity:1;stroke:#aa8744;stroke-width:1.60646;stroke-linecap:round;stroke-linejoin:round;stroke-miterlimit:3.8;stroke-dasharray:none;stroke-opacity:1"
       id="rect15-6"
       width="2.8413243"
       height="38.397343"
       x="161.08058"
       y="94.031296" /><path
       style="opacity:1;fill:#aa8744;fill-opacity:1;stroke:none;stroke-width:2.98535;stroke-linecap:round;stroke-linejoin:round;stroke-miterlimit:3.8;stroke-dasharray:none"
       d="m 264.46723,535.00762 c -3.92738,1.21054 -2.00638,4.57739 -2.40694,12.64109 -0.073,44.26384 -0.31588,91.01128 0.2545,135.27209 -0.24016,1.74419 0.238,4.09112 2.46328,3.97985 16.37329,0.56652 32.78597,0.32049 49.16632,-0.0621 14.20121,-0.3762 28.84695,-1.86129 41.56164,-8.7241 12.73654,-6.02832 23.00035,-16.63445 29.97169,-28.75564 7.68201,-13.37499 10.82421,-28.91211 10.44821,-44.24045 0.81691,-20.12292 -7.56091,-40.78092 -23.35176,-53.54306 -12.38995,-10.32582 -28.53299,-14.5696 -44.31599,-15.91157 l -48.58106,-1.07222 c -4.21244,-0.093 -11.19607,-0.82108 -15.20989,0.41611 z m 23.84255,7.93263 c 13.80879,0.25308 27.78754,0.14289 41.45516,1.28302 12.87747,1.67904 25.05708,7.85451 33.77001,17.52222 9.03781,9.29599 14.76667,21.85563 16.3482,34.72356 0.55548,12.3283 0.66406,24.87841 -3.17143,36.74406 -5.03956,18.07885 -17.29072,34.99079 -35.14693,41.96661 -13.50333,5.44588 -28.1242,5.16282 -42.53013,5.12173 -4.28799,-0.0122 -11.25084,0.31068 -15.52364,-0.0206 -0.43531,-0.0338 -0.86679,-0.0843 -1.29287,-0.15769 -1.3347,-0.22976 -2.47681,-1.79474 -2.61531,-3.14583 -1.72543,-16.83246 -1.58417,-35.42405 -1.47212,-53.84962 0.16278,-26.76788 0.89226,-53.65662 1.3778,-78.51536 0.43372,-2.06889 3.66804,-1.34114 5.2277,-1.62676 1.19086,-0.0381 2.38224,-0.0387 3.57356,-0.0453 z"
       id="path16"
       transform="matrix(0.26458333,0,0,0.26458333,46.555359,-48.601749)"
       sodipodi:nodetypes="cccccccccccscccccccsccss"
       inkscape:path-effect="#path-effect17"
       inkscape:original-d="m 272.04982,534.42317 c -13.32929,-0.0991 -9.43503,2.063 -9.98953,13.22554 -0.073,44.26384 -0.31588,91.01128 0.2545,135.27209 -0.24016,1.74419 0.238,4.09112 2.46328,3.97985 16.37329,0.56652 32.78597,0.32049 49.16632,-0.0621 14.20121,-0.3762 28.84695,-1.86129 41.56164,-8.7241 12.73654,-6.02832 23.00035,-16.63445 29.97169,-28.75564 7.68201,-13.37499 10.82421,-28.91211 10.44821,-44.24045 0.81691,-20.12292 -7.56091,-40.78092 -23.35176,-53.54306 -12.38995,-10.32582 -28.53299,-14.5696 -44.31599,-15.91157 z m 16.25996,8.51708 c 13.80879,0.25308 27.78754,0.14289 41.45516,1.28302 12.87747,1.67904 25.05708,7.85451 33.77001,17.52222 9.03781,9.29599 14.76667,21.85563 16.3482,34.72356 0.55548,12.3283 0.66406,24.87841 -3.17143,36.74406 -5.03956,18.07885 -17.29072,34.99079 -35.14693,41.96661 -15.93818,6.42785 -33.43327,4.87447 -50.29417,5.15811 -3.74279,-0.36062 -7.89326,0.66959 -11.40238,-0.91571 -2.00465,-17.4673 -1.85502,-36.97216 -1.73752,-56.29444 0.16278,-26.76788 0.89226,-53.65662 1.3778,-78.51536 0.43372,-2.06889 3.66804,-1.34114 5.2277,-1.62676 1.19086,-0.0381 2.38224,-0.0387 3.57356,-0.0453 z" /><path
       style="opacity:1;fill:#aa8744;fill-opacity:1;stroke:none;stroke-width:2.98535;stroke-linecap:round;stroke-linejoin:round;stroke-miterlimit:3.8;stroke-dasharray:none"
       d="m 562.30642,533.46109 c -3.22117,0.19397 -7.94481,1.58365 -8.23667,5.37215 0.6888,19.25621 0.38519,38.5644 0.58879,57.84068 0.22469,28.26497 -0.15418,56.54184 0.56778,84.79887 -0.20974,2.08284 1.23666,5.68845 3.81055,4.82644 2.65812,-2.08858 1.2654,-6.09991 1.78654,-8.99931 0.50708,-40.29759 0.19035,-80.60148 0.63045,-120.90003 12.66264,25.51996 24.64067,51.39017 37.14219,76.99543 8.10207,16.76078 16.10765,33.5831 24.29765,50.29242 1.18838,2.5941 3.84248,4.03536 6.6694,3.4952 4.65279,0.28615 5.86564,-5.27337 7.64771,-8.46564 18.50718,-39.95499 36.95694,-79.93441 55.47835,-119.88153 0.84678,15.60578 0.49229,31.27027 0.76783,46.89904 0.33065,25.95058 -0.063,51.91994 0.7815,77.85852 0.35361,4.26739 6.25007,4.08947 10.94639,3.60021 2.51265,-0.26177 4.57942,-2.51776 4.61566,-5.04456 l 0.22516,-15.69931 c 0.0639,-42.16904 0.3804,-84.34343 -0.14368,-126.5096 0.0358,-1.48696 0.30156,-3.29098 -0.57546,-4.12351 -1.98311,-1.8825 -9.46558,-1.92325 -12.11987,-0.87326 -5.60832,2.21854 -7.02372,11.71037 -11.1324,20.31374 -16.60975,36.96307 -33.02756,73.92658 -50.15886,110.63462 -0.43018,1.54242 -1.11895,1.63919 -1.69284,0.22753 -19.53455,-40.49343 -38.62426,-81.1954 -58.10551,-121.71528 -2.09791,-4.08694 -3.89711,-9.44631 -9.07185,-10.41128 -1.53006,-0.43296 -3.13113,-0.60706 -4.71881,-0.53155 z"
       id="path17"
       transform="matrix(0.26458333,0,0,0.26458333,46.555359,-48.601749)"
       sodipodi:nodetypes="sccccccccccccccccsscccccss"
       inkscape:path-effect="#path-effect18"
       inkscape:original-d="m 562.30642,533.46109 c -3.22117,0.19397 -7.94481,1.58365 -8.23667,5.37215 0.6888,19.25621 0.38519,38.5644 0.58879,57.84068 0.22469,28.26497 -0.15418,56.54184 0.56778,84.79887 -0.20974,2.08284 1.23666,5.68845 3.81055,4.82644 2.65812,-2.08858 1.2654,-6.09991 1.78654,-8.99931 0.50708,-40.29759 0.19035,-80.60148 0.63045,-120.90003 12.66264,25.51996 24.64067,51.39017 37.14219,76.99543 8.10207,16.76078 16.10765,33.5831 24.29765,50.29242 1.18838,2.5941 3.84248,4.03536 6.6694,3.4952 4.65279,0.28615 5.86564,-5.27337 7.64771,-8.46564 18.50718,-39.95499 36.95694,-79.93441 55.47835,-119.88153 0.84678,15.60578 0.49229,31.27027 0.76783,46.89904 0.33065,25.95058 -0.063,51.91994 0.7815,77.85852 0.49165,5.93322 11.69822,3.27318 15.49643,3.13082 l 0.29078,-20.27448 c 0.0639,-42.16904 0.3804,-84.34343 -0.14368,-126.5096 0.0358,-1.48696 0.30156,-3.29098 -0.57546,-4.12351 -1.98311,-1.8825 -9.46558,-1.92325 -12.11987,-0.87326 -5.60832,2.21854 -7.02372,11.71037 -11.1324,20.31374 -16.60975,36.96307 -33.02756,73.92658 -50.15886,110.63462 -0.43018,1.54242 -1.11895,1.63919 -1.69284,0.22753 -19.53455,-40.49343 -38.62426,-81.1954 -58.10551,-121.71528 -2.09791,-4.08694 -3.89711,-9.44631 -9.07185,-10.41128 -1.53006,-0.43296 -3.13113,-0.60706 -4.71881,-0.53155 z" /><path
       style="opacity:1;fill:none;fill-opacity:1;stroke:#aa8744;stroke-width:0.434;stroke-linecap:round;stroke-linejoin:round;stroke-miterlimit:3.8;stroke-dasharray:none;stroke-opacity:1"
       d="m 106.2204,149.19457 v 11.1912"
       id="path18" /><path
       style="fill:#aa8744;fill-opacity:1;stroke:#aa8744;stroke-width:0.434;stroke-linecap:round;stroke-linejoin:round;stroke-miterlimit:3.8;stroke-dasharray:none;stroke-opacity:1"
       d="m 204.28315,149.00115 v 11.1912"
       id="path18-4" /><path
       style="opacity:1;fill:#aa8744;fill-opacity:1;stroke:none;stroke-width:0.0741738;stroke-linecap:round;stroke-linejoin:round;stroke-miterlimit:3.8;stroke-dasharray:none;stroke-opacity:1"
       d="m 117.00518,150.25853 c -0.38688,0.008 -0.73232,0.20846 -1.10902,0.27406 -0.65518,0.24765 -1.1968,0.71404 -1.70173,1.18647 -0.24464,-0.43239 -0.30307,-0.98597 -0.71106,-1.3103 -0.36031,-0.003 -0.76081,-0.0826 -1.10107,0.0671 -0.30504,0.24802 -0.15327,0.6973 -0.20054,1.03677 0.003,2.46082 0.0123,4.92275 0.0714,7.38257 0.11587,0.35528 0.55861,0.21556 0.83868,0.25436 0.3377,-0.0281 0.71414,0.058 1.02688,-0.0894 0.23187,-0.23215 0.12023,-0.614 0.16879,-0.91111 0.0597,-1.31987 0.009,-2.65001 0.12811,-3.95113 0.0966,-0.65053 0.44045,-1.26296 0.97445,-1.65449 0.26285,-0.22371 0.60904,-0.29472 0.92479,-0.40803 0.38529,-0.0849 0.82801,0.0352 1.17464,-0.18326 0.22396,-0.29624 0.11057,-0.71435 0.14132,-1.06229 0.0436,-0.29599 -0.1332,-0.6206 -0.45733,-0.62328 -0.0558,-0.007 -0.11214,-0.009 -0.16833,-0.008 z"
       id="path19" /><path
       style="opacity:1;fill:#aa8744;fill-opacity:1;stroke:none;stroke-width:0.280342;stroke-linecap:round;stroke-linejoin:round;stroke-miterlimit:3.8;stroke-dasharray:none;stroke-opacity:1"
       d="m 290.56692,751.81523 c -18.31459,0.27459 -21.72925,24.23534 -7.34635,32.27246 13.16943,6.11564 24.15286,-3.43722 24.4618,-7.73619 0.0668,-0.93008 -1.46402,-1.57514 -2.44494,-1.60034 -0.87903,-0.0226 -1.76185,-0.0352 -2.63644,-0.008 -0.94085,0.0298 -1.93494,0.84533 -2.33983,1.69626 -4.59449,9.6558 -17.54681,7.54279 -17.70452,-5.91535 8.04568,-0.26011 16.22673,-0.11853 24.30523,-0.32613 1.98065,-0.62755 2.95274,-18.61103 -16.29495,-18.38322 z m 0.97571,3.86945 c 5.65429,0.39689 9.03413,7.23986 8.55471,10.51248 -5.55694,0.16325 -11.26985,0.10504 -16.86609,0.031 -1.47354,0.19206 0.95577,-10.31111 8.31138,-10.54352 z"
       id="path20"
       transform="matrix(0.26458333,0,0,0.26458333,46.555359,-48.601749)"
       sodipodi:nodetypes="scccccsssccss"
       inkscape:path-effect="#path-effect26"
       inkscape:original-d="m 290.56692,751.81523 c -18.31459,0.27459 -21.72925,24.23534 -7.34635,32.27246 15.22656,7.07094 27.53086,-6.80395 23.79285,-9.28642 -2.02362,-0.0516 -4.11202,-0.16069 -6.113,0.0566 -3.86868,11.42501 -18.17796,9.81642 -18.34378,-4.33336 8.04568,-0.26011 16.22673,-0.11853 24.30523,-0.32613 1.98065,-0.62755 2.95274,-18.61103 -16.29495,-18.38322 z m 0.97571,3.86945 c 5.65429,0.39689 9.03413,7.23986 8.55471,10.51248 -5.55694,0.16325 -11.26985,0.10504 -16.86609,0.031 -1.47354,0.19206 0.95577,-10.31111 8.31138,-10.54352 z" /><path
       style="fill:#aa8744;fill-opacity:1;stroke:none;stroke-width:0.280342;stroke-linecap:round;stroke-linejoin:round;stroke-miterlimit:3.8;stroke-dasharray:none;stroke-opacity:1"
       d="m 290.56692,751.81523 c -18.31459,0.27459 -21.72925,24.23534 -7.34635,32.27246 13.16943,6.11564 24.15286,-3.43722 24.4618,-7.73619 0.0668,-0.93008 -1.46402,-1.57514 -2.44494,-1.60034 -0.87903,-0.0226 -1.76185,-0.0352 -2.63644,-0.008 -0.94085,0.0298 -1.93494,0.84533 -2.33983,1.69626 -4.59449,9.6558 -17.54681,7.54279 -17.70452,-5.91535 8.04568,-0.26011 16.22673,-0.11853 24.30523,-0.32613 1.98065,-0.62755 2.95274,-18.61103 -16.29495,-18.38322 z m 0.97571,3.86945 c 5.65429,0.39689 9.03413,7.23986 8.55471,10.51248 -5.55694,0.16325 -11.26985,0.10504 -16.86609,0.031 -1.47354,0.19206 0.95577,-10.31111 8.31138,-10.54352 z"
       id="path20-8"
       transform="matrix(0.26458333,0,0,0.26458333,84.238201,-48.752796)"
       sodipodi:nodetypes="scccccsssccss"
       inkscape:path-effect="#path-effect26-0"
       inkscape:original-d="m 290.56692,751.81523 c -18.31459,0.27459 -21.72925,24.23534 -7.34635,32.27246 15.22656,7.07094 27.53086,-6.80395 23.79285,-9.28642 -2.02362,-0.0516 -4.11202,-0.16069 -6.113,0.0566 -3.86868,11.42501 -18.17796,9.81642 -18.34378,-4.33336 8.04568,-0.26011 16.22673,-0.11853 24.30523,-0.32613 1.98065,-0.62755 2.95274,-18.61103 -16.29495,-18.38322 z m 0.97571,3.86945 c 5.65429,0.39689 9.03413,7.23986 8.55471,10.51248 -5.55694,0.16325 -11.26985,0.10504 -16.86609,0.031 -1.47354,0.19206 0.95577,-10.31111 8.31138,-10.54352 z" /><path
       style="fill:#aa8744;fill-opacity:1;stroke:none;stroke-width:0.280342;stroke-linecap:round;stroke-linejoin:round;stroke-miterlimit:3.8;stroke-dasharray:none;stroke-opacity:1"
       d="m 290.56692,751.81523 c -18.31459,0.27459 -21.72925,24.23534 -7.34635,32.27246 13.16943,6.11564 24.15286,-3.43722 24.4618,-7.73619 0.0668,-0.93008 -1.46402,-1.57514 -2.44494,-1.60034 -0.87903,-0.0226 -1.76185,-0.0352 -2.63644,-0.008 -0.94085,0.0298 -1.93494,0.84533 -2.33983,1.69626 -4.59449,9.6558 -17.54681,7.54279 -17.70452,-5.91535 8.04568,-0.26011 16.22673,-0.11853 24.30523,-0.32613 1.98065,-0.62755 2.95274,-18.61103 -16.29495,-18.38322 z m 0.97571,3.86945 c 5.65429,0.39689 9.03413,7.23986 8.55471,10.51248 -5.55694,0.16325 -11.26985,0.10504 -16.86609,0.031 -1.47354,0.19206 0.95577,-10.31111 8.31138,-10.54352 z"
       id="path20-8-2"
       transform="matrix(0.26458333,0,0,0.26458333,118.00578,-48.752793)"
       sodipodi:nodetypes="scccccsssccss"
       inkscape:path-effect="#path-effect26-0-5"
       inkscape:original-d="m 290.56692,751.81523 c -18.31459,0.27459 -21.72925,24.23534 -7.34635,32.27246 15.22656,7.07094 27.53086,-6.80395 23.79285,-9.28642 -2.02362,-0.0516 -4.11202,-0.16069 -6.113,0.0566 -3.86868,11.42501 -18.17796,9.81642 -18.34378,-4.33336 8.04568,-0.26011 16.22673,-0.11853 24.30523,-0.32613 1.98065,-0.62755 2.95274,-18.61103 -16.29495,-18.38322 z m 0.97571,3.86945 c 5.65429,0.39689 9.03413,7.23986 8.55471,10.51248 -5.55694,0.16325 -11.26985,0.10504 -16.86609,0.031 -1.47354,0.19206 0.95577,-10.31111 8.31138,-10.54352 z" /><path
       style="opacity:1;fill:#aa8744;fill-opacity:1;stroke:none;stroke-width:0.280342;stroke-linecap:round;stroke-linejoin:round;stroke-miterlimit:3.8;stroke-dasharray:none;stroke-opacity:1"
       d="m 319.59313,766.39585 c 4.98799,5.24506 13.87373,5.85076 16.59071,9.25499 1.05849,1.32623 -0.2023,4.04388 -1.63852,5.03825 -5.61577,3.88812 -10.11211,0.46278 -10.47609,-4.38589 -0.0359,-0.47816 -0.37461,-1.03571 -0.83793,-1.15376 -1.41541,-0.36066 -4.20412,-0.73236 -5.4559,0.0109 -0.60306,0.3581 -0.74064,1.69544 -0.73273,2.43394 0.12217,11.40835 26.22605,11.11978 27.14859,0.71827 0.25407,-2.86465 -2.36357,-7.3094 -4.72441,-8.94602 -1.34633,-0.93333 -2.83249,-1.68178 -4.03005,-2.20142 -1.19892,-0.52024 -3.23063,-1.14935 -4.42701,-1.67775 -1.47049,-0.64947 -2.88876,-1.40726 -4.32634,-2.15757 -0.82202,-0.56002 -1.63759,-1.3188 -2.03924,-2.22685 -0.4349,-0.98323 -0.0944,-2.91275 0.57384,-3.76658 1.96332,-2.50875 7.22298,-1.69851 9.59967,-0.14337 0.45024,0.29461 0.87908,1.03999 0.98103,1.56947 0.0915,0.47499 0.16265,0.97587 0.23642,1.46857 0.13725,0.91662 0.96932,2.03883 1.8689,2.21062 1.45627,0.27809 3.5601,0.38396 4.73682,-0.0684 0.61819,-0.23763 0.78242,-1.38688 0.60966,-2.05706 -3.28336,-12.73708 -23.40898,-10.56735 -25.83563,-1.00168 -0.52594,2.07318 0.69724,5.52399 2.17821,7.08127 z"
       id="path21"
       transform="matrix(0.26458333,0,0,0.26458333,46.555359,-48.601749)"
       sodipodi:nodetypes="cccccccccccc"
       inkscape:path-effect="#path-effect25"
       inkscape:original-d="m 317.3917,763.18725 c 4.68507,10.0014 20.61994,8.18994 19.55254,15.44041 -7.02939,7.22893 -13.05373,2.79106 -12.89576,-3.19243 -0.58307,-0.41584 -6.96772,-1.72022 -6.90713,0.82548 -2.24095,14.49706 34.35099,12.6317 25.76829,-2.99522 -1.38741,-3.97527 -8.69,-6.6979 -9.69432,-6.91574 -2.29205,-0.76809 -4.39054,-1.9023 -6.53187,-3.01992 -1.35498,-0.92312 -2.69245,-2.38626 -2.18741,-4.16787 0.62396,-5.10756 9.03157,-3.59218 11.07265,-1.34828 0.37729,1.21421 0.45396,2.84028 0.77489,4.06699 0.4667,0.68517 6.79324,1.53814 7.16258,-0.33762 -2.54796,-15.78092 -28.97492,-11.37923 -26.11446,1.6442 z" /><path
       style="opacity:1;fill:#aa8744;fill-opacity:1;stroke:none;stroke-width:0.0741738;stroke-linecap:round;stroke-linejoin:round;stroke-miterlimit:3.8;stroke-dasharray:none;stroke-opacity:1"
       d="m 141.30716,150.39269 c -0.32489,-0.0243 -0.78523,0.0184 -0.8543,0.41369 -0.0811,1.12938 -0.008,2.26604 -0.0178,3.39803 0.0302,1.56231 -0.004,3.12851 0.0926,4.68808 0.10546,0.38744 0.59916,0.27794 0.90174,0.30374 0.3334,-0.042 0.7967,0.11223 1.02971,-0.20579 0.11818,-0.45578 0.0408,-0.94724 0.0757,-1.41609 0.0115,-2.23474 0.051,-4.4707 -0.003,-6.7049 0.0373,-0.30955 -0.26369,-0.50003 -0.54516,-0.46996 -0.22624,-0.01 -0.4528,-0.007 -0.67917,-0.007 z"
       id="path22" /><path
       style="opacity:1;fill:#aa8744;fill-opacity:1;stroke:none;stroke-width:0.0741738;stroke-linecap:round;stroke-linejoin:round;stroke-miterlimit:3.8;stroke-dasharray:none;stroke-opacity:1"
       d="m 152.94979,145.73299 c -0.31212,0.0419 -0.75799,-0.0827 -0.95578,0.23581 -0.13588,0.51209 -0.0424,1.05935 -0.0701,1.58461 0.005,1.19953 0.0134,2.39904 0.0199,3.59856 -0.29533,-0.28414 -0.66457,-0.46173 -1.0396,-0.61188 -0.45911,-0.10455 -0.90899,-0.28016 -1.38951,-0.22982 -0.5976,0.0127 -1.20645,0.11985 -1.75314,0.36142 -0.20758,0.11959 -0.47269,0.15493 -0.62344,0.35866 -0.54564,0.33171 -0.96981,0.84616 -1.30518,1.38263 -0.23084,0.38316 -0.32822,0.82196 -0.49617,1.22993 -0.0691,0.74222 -0.0428,1.49411 -0.0169,2.23862 0.0519,0.30992 0.22219,0.5848 0.28527,0.89432 0.10446,0.2282 0.21274,0.45584 0.34462,0.6653 0.24005,0.30214 0.46501,0.62397 0.7606,0.88151 0.23107,0.22433 0.51289,0.38514 0.7939,0.53645 0.22766,0.0854 0.42699,0.26342 0.68721,0.27794 0.41029,0.0775 0.79621,0.27097 1.22463,0.24376 0.42824,0.0251 0.85303,-0.0456 1.24662,-0.21276 0.25667,-0.0331 0.50042,-0.13045 0.70328,-0.28995 0.42866,-0.0956 0.64496,-0.55153 0.99845,-0.76652 0.11344,0.23854 0.0641,0.61703 0.30046,0.83037 0.27905,0.35505 0.82211,0.30072 1.1893,0.12815 0.37117,-0.23369 0.17806,-0.74133 0.23244,-1.09805 0.0227,-3.95294 0.0747,-7.90633 0.0352,-11.8592 0.0144,-0.36773 -0.40992,-0.36785 -0.67163,-0.37194 -0.1667,-0.007 -0.33361,-0.009 -0.50045,-0.008 z m -2.77851,5.67696 c 0.55347,0.123 1.07036,0.46064 1.31852,0.98263 0.17895,0.18997 0.20135,0.47381 0.33623,0.69525 0.0644,0.34301 0.15009,0.68164 0.23201,1.01929 0.0531,0.67046 0.1053,1.34896 -0.10386,1.99786 -0.0489,0.31178 -0.10598,0.62071 -0.26337,0.89643 -0.084,0.30657 -0.29011,0.56504 -0.48743,0.80865 -0.23012,0.26758 -0.54411,0.42131 -0.87056,0.52974 -0.24287,0.15444 -0.56694,0.0765 -0.84274,0.0894 -0.22812,-0.08 -0.45389,-0.18218 -0.68394,-0.25939 -0.16768,-0.16192 -0.38517,-0.26631 -0.53194,-0.45943 -0.18603,-0.18163 -0.31303,-0.40421 -0.44725,-0.62194 -0.0902,-0.30528 -0.30475,-0.55811 -0.30743,-0.89026 -0.13505,-0.54864 -0.23445,-1.11117 -0.16092,-1.67806 0.0378,-0.4391 0.16486,-0.85883 0.23916,-1.29051 0.18496,-0.37771 0.30061,-0.79501 0.61701,-1.09198 0.35946,-0.48129 0.93667,-0.70306 1.50966,-0.79936 0.14589,-0.0392 0.3002,0.0544 0.44685,0.0717 z"
       id="path23" /><path
       style="opacity:1;fill:#aa8744;fill-opacity:1;stroke:none;stroke-width:0.148348;stroke-linecap:round;stroke-linejoin:round;stroke-miterlimit:3.8;stroke-dasharray:none;stroke-opacity:1"
       d="m 184.06108,150.24564 c -1.25712,0.0867 -2.54128,0.53138 -3.34588,1.55105 -1.41143,1.49429 -1.41737,3.97038 -0.33879,5.64994 0.89829,1.35673 2.58502,2.04334 4.17501,1.9689 1.36736,-0.15804 2.79753,-0.72037 3.51191,-1.97226 0.25583,-0.37888 0.50373,-1.17643 -0.14908,-1.29617 -0.43464,-0.0122 -0.99286,-0.174 -1.33397,0.1233 -0.33103,0.82791 -0.70237,1.79045 -1.64979,2.06401 -1.26527,0.46332 -2.48234,-0.62421 -2.82144,-1.78493 -0.49258,-1.55874 -0.36112,-3.55965 0.92611,-4.69856 0.75298,-0.66234 1.95994,-0.59222 2.65204,0.12595 0.56284,0.46216 0.53224,1.51123 1.34792,1.65862 0.4709,0.0339 1.33858,0.10731 1.3103,-0.58325 -0.22146,-1.22391 -1.33381,-2.15069 -2.48176,-2.50808 -0.58491,-0.16156 -1.19354,-0.29311 -1.80258,-0.29852 z"
       id="path25" /><path
       style="opacity:1;fill:#aa8744;fill-opacity:1;stroke:none;stroke-width:0.433999;stroke-linecap:round;stroke-linejoin:round;stroke-miterlimit:3.8;stroke-dasharray:none;stroke-opacity:1"
       id="path26"
       sodipodi:type="arc"
       sodipodi:cx="141.50464"
       sodipodi:cy="148.0275"
       sodipodi:rx="1.2949809"
       sodipodi:ry="1.2949809"
       sodipodi:start="4.0663863"
       sodipodi:end="4.0005034"
       sodipodi:open="true"
       sodipodi:arc-type="arc"
       d="m 140.72506,146.99346 a 1.2949809,1.2949809 0 0 1 1.80064,0.23753 1.2949809,1.2949809 0 0 1 -0.20785,1.80431 1.2949809,1.2949809 0 0 1 -1.80748,-0.1781 1.2949809,1.2949809 0 0 1 0.14831,-1.81017" /></g></svg>
